<!DOCTYPE svg PUBLIC "-//W3C//DTD SVG 1.1//EN" "http://www.w3.org/Graphics/SVG/1.1/DTD/svg11.dtd">
<!-- Uploaded to: SVG Repo, www.svgrepo.com, Transformed by: SVG Repo Mixer Tools -->
<svg height="256px" width="256px" version="1.1" id="Layer_1" xmlns="http://www.w3.org/2000/svg" xmlns:xlink="http://www.w3.org/1999/xlink" viewBox="0 0 512 512" xml:space="preserve" fill="#000000">
<g id="SVGRepo_bgCarrier" stroke-width="0"/>
<g id="SVGRepo_tracerCarrier" stroke-linecap="round" stroke-linejoin="round"/>
<g id="SVGRepo_iconCarrier"> <g> <circle style="fill:#F9E450;" cx="255.999" cy="103.807" r="93.608"/> <circle style="fill:#F9E450;" cx="255.999" cy="301.692" r="59.359"/> </g> <g> <path style="fill:#C3F6D7;" d="M274.831,462.155c0,10.4-18.832,39.645-18.832,39.645s-18.832-29.245-18.832-39.645 s8.431-18.832,18.832-18.832C266.4,443.324,274.831,451.755,274.831,462.155z"/> <path style="fill:#C3F6D7;" d="M334.299,418.546c0,10.4-18.832,39.645-18.832,39.645s-18.832-29.245-18.832-39.645 s8.431-18.832,18.832-18.832C325.868,399.714,334.299,408.146,334.299,418.546z"/> <path style="fill:#C3F6D7;" d="M215.363,418.546c0,10.4-18.832,39.645-18.832,39.645s-18.832-29.245-18.832-39.645 s8.431-18.832,18.832-18.832C206.932,399.714,215.363,408.146,215.363,418.546z"/> </g> <path d="M321.274,93.613h-4.08c-5.632,0-10.199,4.567-10.199,10.199s4.567,10.199,10.199,10.199h4.08 c5.632,0,10.199-4.567,10.199-10.199S326.906,93.613,321.274,93.613z"/> <path d="M325.667,391.369v-88.786c0-0.502-0.048-0.991-0.118-1.474c-0.289-34.629-26-63.302-59.349-68.225v-25.762 c52.474-5.14,93.613-49.509,93.613-103.311C359.812,46.57,313.243,0,255.999,0S152.187,46.57,152.187,103.813 c0,53.802,41.139,98.17,93.613,103.311v25.762c-33.35,4.922-59.062,33.594-59.349,68.225c-0.07,0.482-0.118,0.972-0.118,1.474 v88.786c-10.991,4.138-18.832,14.757-18.832,27.177c0,12.094,14.304,35.616,20.457,45.167c1.877,2.915,5.107,4.677,8.574,4.677 c3.468,0,6.698-1.762,8.574-4.677c6.151-9.552,20.457-33.073,20.457-45.167c0-12.42-7.841-23.038-18.832-27.177v-40.616 c10.334,10.378,23.914,17.514,39.07,19.751v64.474c-10.991,4.138-18.832,14.757-18.832,27.177c0,12.094,14.304,35.616,20.457,45.167 c1.876,2.915,5.106,4.677,8.573,4.677s6.698-1.762,8.574-4.677c6.151-9.552,20.457-33.073,20.457-45.167 c0-12.42-7.841-23.038-18.832-27.177v-64.474c15.156-2.237,28.736-9.373,39.07-19.751v40.616 c-10.991,4.138-18.832,14.757-18.832,27.177c0,12.094,14.304,35.616,20.457,45.167c1.877,2.915,5.107,4.677,8.574,4.677 c3.468,0,6.698-1.762,8.574-4.677c6.151-9.552,20.457-33.073,20.457-45.167C344.499,406.126,336.657,395.508,325.667,391.369z M255.999,350.861c-9.872,0-19.066-2.935-26.777-7.964l26.777-26.777l26.777,26.777 C275.066,347.925,265.871,350.861,255.999,350.861z M206.834,301.695c0-9.872,2.935-19.066,7.964-26.777l26.778,26.777 l-26.777,26.777C209.77,320.762,206.834,311.567,206.834,301.695z M255.999,252.53c9.872,0,19.067,2.935,26.778,7.965 l-26.778,26.777l-26.778-26.777C236.932,255.466,246.128,252.53,255.999,252.53z M270.424,301.695l26.778-26.777 c5.028,7.711,7.964,16.905,7.964,26.777s-2.935,19.066-7.964,26.777L270.424,301.695z M266.199,21.044 c15.373,1.884,29.459,7.96,41.089,17.056l-41.089,41.09V21.044z M245.8,79.19l-41.089-41.089 c11.629-9.097,25.715-15.173,41.089-17.057V79.19z M266.199,128.437l41.089,41.089c-11.629,9.096-25.715,15.172-41.089,17.056 V128.437z M339.414,103.813c0,19.329-6.626,37.128-17.703,51.288l-41.089-41.089h10.054c5.632,0,10.199-4.567,10.199-10.199 s-4.567-10.199-10.199-10.199h-10.053l41.089-41.089C332.787,66.684,339.414,84.484,339.414,103.813z M190.288,52.525l41.089,41.089 h-58.145C175.115,78.24,181.191,64.154,190.288,52.525z M173.231,114.012h58.145L190.287,155.1 C181.191,143.471,175.115,129.385,173.231,114.012z M204.712,169.525l41.089-41.089v58.145 C230.427,184.697,216.341,178.621,204.712,169.525z M196.529,438.257c-4.966-9.042-8.503-16.927-8.631-19.711 c0-4.76,3.873-8.633,8.633-8.633c4.752,0,8.619,3.859,8.633,8.607C205.026,421.335,201.491,429.22,196.529,438.257z M255.997,481.866c-4.966-9.042-8.503-16.927-8.631-19.711c0-4.76,3.873-8.633,8.633-8.633c4.752,0,8.619,3.859,8.633,8.607 C264.494,464.945,260.958,472.83,255.997,481.866z M315.466,438.257c-4.966-9.042-8.503-16.927-8.631-19.711 c0-4.76,3.873-8.633,8.633-8.633c4.752,0,8.619,3.859,8.633,8.607C323.963,421.335,320.427,429.22,315.466,438.257z"/> </g>
</svg>